HIERARCHY
ROOT Hips
{
  OFFSET 0 0 0
  CHANNELS 6 Xposition Yposition Zposition Zrotation Yrotation Xrotation
  JOINT LeftThigh
  {
    OFFSET 8.409438 0 -5.917753
    CHANNELS 3 Zrotation Yrotation Xrotation
    JOINT LeftLeg
    {
      OFFSET 0 0 -42.358652
      CHANNELS 3 Zrotation Yrotation Xrotation
      JOINT LeftFoot
      {
        OFFSET 0 0 -39.357303
        CHANNELS 3 Zrotation Yrotation Xrotation
      }
    }
  }
  JOINT RightThigh
  {
    OFFSET -8.409438 0 -5.917753
    CHANNELS 3 Zrotation Yrotation Xrotation
    JOINT RightLeg
    {
      OFFSET 0 0 -42.358652
      CHANNELS 3 Zrotation Yrotation Xrotation
      JOINT RightFoot
      {
        OFFSET 0 0 -39.357303
        CHANNELS 3 Zrotation Yrotation Xrotation
      }
    }
  }
  JOINT SpineLow
  {
    OFFSET 0 0 4.719101
    CHANNELS 3 Zrotation Yrotation Xrotation
    JOINT SpineMid
    {
      OFFSET 0 0 12.899191
      CHANNELS 3 Zrotation Yrotation Xrotation
      JOINT Chest
      {
        OFFSET 0 0 12.899191
        CHANNELS 3 Zrotation Yrotation Xrotation
        JOINT LeftShoulder
        {
          OFFSET 7.550562 1.41573 9.438202
          CHANNELS 3 Zrotation Yrotation Xrotation
          JOINT LeftArm
          {
            OFFSET 9.155056 0 4.247191
            CHANNELS 3 Zrotation Yrotation Xrotation
            JOINT LeftForearm
            {
              OFFSET 0 0 25.771955
              CHANNELS 3 Zrotation Yrotation Xrotation
              JOINT LeftHand
              {
                OFFSET 0 0 25.197169
                CHANNELS 3 Zrotation Yrotation Xrotation
              }
            }
          }
        }
        JOINT RightShoulder
        {
          OFFSET -7.550562 1.41573 9.438202
          CHANNELS 3 Zrotation Yrotation Xrotation
          JOINT RightArm
          {
            OFFSET -9.155056 0 4.247191
            CHANNELS 3 Zrotation Yrotation Xrotation
            JOINT RightForearm
            {
              OFFSET 0 0 -25.771955
              CHANNELS 3 Zrotation Yrotation Xrotation
              JOINT RightHand
              {
                OFFSET 0 0 -25.197169
                CHANNELS 3 Zrotation Yrotation Xrotation
              }
            }
          }
        }
        JOINT Neck
        {
          OFFSET 0 0 15.101124
          CHANNELS 3 Zrotation Yrotation Xrotation
          JOINT Head
          {
            OFFSET 0 0 11.325843
            CHANNELS 3 Zrotation Yrotation Xrotation
            End Site
            {
              OFFSET 0 0 14.157303
            }
          }
        }
      }
    }
  }
}
MOTION
Frames: 8
Frame Time: 0.0
0.0  93.25843  0.0  -2.056104  -8.524106  -92.069846  9.638821  -14.146063  5.295672  2.359936  -1.881299  6.214127  4.606018  1.801606  1.183451  -2.138613  3.861357  -4.395709  -0.97921  7.543614  8.493009  0.5618  0.858625  -0.301543  1.3891  0.281796  -0.469342  3.791502  0.796888  -1.266288  3.791502  0.796888  -1.266289  -30.353207  17.015906  16.017833  -153.055456  35.21112  -95.002933  -33.396212  28.83468  75.058459  51.223452  -10.469394  26.535467  8.68478  -21.586364  22.120198  123.07108  65.001869  49.745716  -33.263824  -22.118847  -97.960365  49.038619  -9.271679  -18.530311  -3.335604  -0.792953  10.74669  -2.48863  -0.653642  8.055849  
0.0  93.25843  0.0  -2.20909  -8.010504  -92.090106  9.440774  -14.419943  5.264189  1.80724  -1.814254  6.02572  4.782104  1.836315  1.241501  -2.490515  3.753993  -4.254334  -1.493683  7.530023  8.415664  0.826026  0.958215  -0.294421  1.369684  0.260303  -0.482139  3.738677  0.738517  -1.302704  3.738677  0.738517  -1.302704  -30.322333  17.217849  16.126832  -153.502182  35.221778  -95.235723  -33.922217  29.386966  74.152018  51.672321  -10.228103  27.472981  8.049293  -21.38835  21.947171  123.27476  64.638755  49.417379  -32.782572  -23.145999  -98.521694  48.986604  -9.587787  -17.780562  -3.600118  -0.851821  10.823159  -2.68595  -0.702923  8.11254  
0.0  93.25843  0.0  -2.262068  -7.095987  -92.025345  8.878183  -14.505006  4.937483  1.598368  -1.733883  6.300005  4.894946  1.847388  1.193083  -2.96326  3.793946  -4.139807  -1.65098  7.500092  8.490931  0.763027  0.993606  -0.330942  1.291981  0.26416  -0.520598  3.525765  0.749584  -1.408482  3.525765  0.749584  -1.408482  -30.411825  17.420063  16.297182  -153.91001  35.236917  -95.45317  -34.877947  30.028883  72.907446  52.435354  -9.991587  28.436983  7.89614  -21.31387  22.0112  123.253116  64.556541  49.259684  -32.610587  -23.72435  -98.846011  48.570117  -9.908357  -17.187464  -3.892075  -0.958648  10.932448  -2.902938  -0.788957  8.193437  
0.0  93.25843  0.0  -2.44349  -6.325651  -92.050113  9.188222  -14.947373  4.785258  0.608843  -1.576855  6.239197  5.107971  1.921427  1.304885  -3.38134  3.686273  -3.973152  -2.137559  7.546662  8.48903  0.864587  1.081055  -0.32126  1.236953  0.24904  -0.552409  3.375314  0.708728  -1.496818  3.375314  0.708728  -1.496818  -30.52339  17.716262  16.476344  -154.11578  35.179425  -95.692712  -35.942069  30.32507  71.475824  53.066426  -9.701741  29.489716  7.635832  -21.232796  22.030914  123.114784  64.327453  48.857368  -32.33957  -24.261315  -99.232425  48.196183  -10.030573  -16.836412  -4.132744  -1.085103  11.068843  -3.081007  -0.889084  8.2945  
0.0  93.25843  0.0  -2.495281  -4.970023  -91.951559  8.7428  -15.125098  4.231795  0.011007  -1.378067  6.693251  5.10019  1.929895  1.24734  -4.073994  3.78172  -3.866622  -2.524845  7.528157  8.566763  0.793627  1.103475  -0.307742  1.105255  0.253232  -0.60434  3.014668  0.719584  -1.639994  3.014668  0.719584  -1.639994  -30.630246  18.068072  16.710725  -154.378378  35.027277  -95.853641  -36.876607  30.948883  70.236688  54.454318  -9.524449  30.047931  7.402419  -21.133957  22.060825  122.830027  64.119097  48.431413  -32.014715  -24.813627  -99.666664  47.999868  -10.043739  -16.83817  -4.47075  -1.176933  11.177269  -3.332738  -0.964922  8.374584  
0.0  93.25843  0.0  -2.560683  -3.532159  -91.911212  8.64453  -15.536409  3.692774  -1.206707  -1.026171  6.94977  5.227673  1.983064  1.34595  -4.864339  3.863262  -3.746424  -3.386326  7.52451  8.520879  0.685324  1.220833  -0.295494  0.957436  0.253213  -0.641753  2.610218  0.717356  -1.743891  2.610219  0.717356  -1.743891  -30.866207  18.474451  16.836194  -154.283222  34.708264  -96.049541  -37.303901  31.429041  69.418173  55.70271  -9.406833  30.103415  7.07557  -20.987822  22.022324  122.579553  63.763336  47.8976  -30.609004  -26.177776  -100.838778  48.936399  -9.628441  -16.07775  -4.776787  -1.248677  11.248994  -3.560892  -1.024931  8.427268  
0.0  93.25843  0.0  -2.584864  -1.854605  -91.811139  8.357359  -15.779464  2.95319  -2.18145  -0.652758  7.596444  5.140579  1.958539  1.2732  -5.588127  4.061855  -3.649421  -3.872017  7.452931  8.628526  0.635384  1.238232  -0.21797  0.771565  0.252711  -0.686316  2.101705  0.712509  -1.867762  2.101705  0.712509  -1.867762  -30.847425  18.930273  16.992382  -154.35163  34.397742  -96.190885  -37.062572  31.360475  69.277432  56.388045  -9.382408  29.486518  6.824223  -20.790233  22.030612  122.268681  63.463537  47.406457  -30.242938  -26.411419  -101.455004  48.86222  -9.655229  -16.001078  -5.104287  -1.273514  11.287697  -3.806072  -1.049936  8.455494  
0.0  93.25843  0.0  -2.616894  -0.259595  -91.724685  7.957638  -16.186367  1.948564  -3.090078  -0.11435  8.463925  5.196984  1.975311  1.317516  -6.081581  4.262569  -3.579813  -5.06809  7.169253  8.609224  0.730465  1.52763  -0.148011  0.597726  0.244963  -0.728886  1.626326  0.687478  -1.98621  1.626325  0.687478  -1.98621  -31.242679  19.478802  17.044925  -153.980404  34.052488  -96.276686  -36.297732  30.706064  69.763865  56.491716  -9.428762  28.272922  6.552424  -20.628241  22.000227  122.036564  63.049837  47.028241  -28.472127  -27.549482  -102.966259  49.827639  -9.243016  -15.004962  -5.437413  -1.283263  11.297367  -4.055808  -1.063507  8.462056  
